<svg width="32" height="32" viewBox="0 0 32 32" fill="none" xmlns="http://www.w3.org/2000/svg">
<path fill-rule="evenodd" clip-rule="evenodd" d="M5.70164 0.132788C5.38982 0.37803 5.36391 0.535808 5.36403 2.1877C5.36409 3.51007 5.37787 3.7332 5.47122 3.91995C5.61987 4.21762 5.91031 4.34851 6.42242 4.34857C6.93323 4.34869 7.22178 4.23489 7.38354 3.96956C7.49912 3.78012 7.5072 3.66356 7.50738 2.1877C7.50763 0.439647 7.47792 0.266557 7.14797 0.0959163C7.02027 0.0298896 6.7923 0 6.41647 0C5.94908 0 5.84612 0.0191097 5.70164 0.132788ZM11.1064 0.107492C10.7779 0.311146 10.7538 0.453183 10.7541 2.1836C10.7543 3.66356 10.7624 3.78006 10.8779 3.96956C11.0397 4.23489 11.3282 4.34869 11.8391 4.34857C12.3512 4.34851 12.6416 4.21762 12.7903 3.91995C12.8838 3.73283 12.8974 3.50854 12.8974 2.15597C12.8976 0.476947 12.8822 0.38636 12.5536 0.127888C12.4153 0.0191098 12.3077 0.000245023 11.8327 0.00165375C11.4159 0.00281749 11.2318 0.0297058 11.1064 0.107492ZM16.4967 0.095855C16.1631 0.276908 16.1438 0.392485 16.1438 2.20283V3.86048L16.3512 4.08691C16.5468 4.30031 16.5836 4.3147 16.994 4.33785C17.5836 4.37117 17.8201 4.31666 18.0401 4.09665L18.2262 3.91052V2.16351V0.416495L18.018 0.208247C17.8104 0.000612579 17.808 5.61301e-08 17.2371 0.00245002C16.8507 0.00410375 16.6098 0.0344833 16.4967 0.095855ZM1.94455 1.9152C1.62911 2.01614 1.16325 2.47122 1.03494 2.80387C0.928668 3.0793 0.92334 3.55478 0.92334 12.7705C0.92334 21.5726 0.932343 22.4676 1.02287 22.6667C1.17857 23.009 1.50662 23.3422 1.84165 23.4982L2.14832 23.641L7.61482 23.6416L13.0813 23.6422V23.2747V22.9072H7.81081C1.9933 22.9072 2.30181 22.9279 2.054 22.5214C1.9372 22.3299 1.93438 22.1587 1.9342 15.1745L1.93395 8.02365H11.8257H21.7174V11.0626V14.1016L21.8553 14.0647C21.9311 14.0444 22.1654 14.0274 22.3759 14.0269L22.7587 14.0261L22.754 8.55958C22.7506 4.5371 22.7304 3.04157 22.6775 2.89807C22.5366 2.516 22.2342 2.16804 21.8971 2.00003L21.5709 1.83748H19.9905H18.41V3.00819C18.41 4.0871 18.3998 4.19698 18.2803 4.4097C18.0613 4.7993 17.5246 5.01043 16.9661 4.9267C16.5949 4.87103 16.3245 4.67797 16.1591 4.35053C16.0311 4.09727 16.0213 3.99755 16.0213 2.9576V1.83748H14.5207H13.0201V3.00819C13.0201 4.0871 13.0099 4.19698 12.8903 4.4097C12.6714 4.7993 12.1346 5.01043 11.5762 4.9267C11.205 4.87103 10.9346 4.67797 10.7691 4.35053C10.6412 4.09727 10.6313 3.99755 10.6313 2.9576V1.83748H9.13073H7.63013V3.00819C7.63013 4.0871 7.61996 4.19698 7.5004 4.4097C7.30349 4.76004 6.9592 4.92609 6.42872 4.9267C6.05394 4.92707 5.9568 4.90324 5.73483 4.75637C5.30027 4.4688 5.24435 4.26392 5.24276 2.95527L5.24141 1.83748L3.69487 1.84372C2.78807 1.8474 2.06405 1.87698 1.94455 1.9152ZM3.52643 11.2076V12.9236H5.24239H6.95835L6.94205 11.2239L6.92576 9.52425L5.2261 9.50796L3.52643 9.49167V11.2076ZM7.76696 11.1933L7.78325 12.893H9.4676H11.152L11.1683 11.1933L11.1845 9.49363H9.4676H7.75067L7.76696 11.1933ZM12.0401 11.2086V12.9236H13.7244H15.4088V11.2086V9.49363H13.7244H12.0401V11.2086ZM16.2806 11.1933L16.2969 12.893L17.9966 12.9093L19.6962 12.9255V11.2096V9.49363H17.9803H16.2643L16.2806 11.1933ZM3.46518 15.4654V17.1498H5.18016H6.89514V15.4654V13.7811H5.18016H3.46518V15.4654ZM7.75263 15.4654V17.1498H9.4676H11.1826V15.4654V13.7811H9.4676H7.75263V15.4654ZM12.0401 15.4654V17.1498H13.7244H15.4088V15.4654V13.7811H13.7244H12.0401V15.4654ZM16.2663 15.0061C16.2663 15.6798 16.2897 16.231 16.3184 16.231C16.3471 16.231 16.5563 16.0904 16.7834 15.9184C17.5327 15.3513 18.4545 14.8603 19.3747 14.5385L19.6962 14.4261V14.1035V13.7811H17.9812H16.2663V15.0061ZM20.9518 14.7303C17.8382 15.279 15.332 17.3395 14.2172 20.2673C13.2307 22.8581 13.5774 25.8568 15.131 28.1709C16.3755 30.0246 18.2518 31.3179 20.4467 31.8349C21.0648 31.9804 21.2582 31.9974 22.3299 31.9999C23.6304 32.003 24.0511 31.9429 25.1153 31.602C26.3813 31.1964 27.4447 30.5319 28.4914 29.4924C30.1515 27.8436 30.9726 25.9806 31.0698 23.6422C31.1408 21.9327 30.695 20.2105 29.821 18.8176C29.4527 18.2306 29.0645 17.701 29.0025 17.701C28.9807 17.701 28.8333 17.8661 28.6747 18.0678L28.3865 18.4347L28.6657 18.8259C28.8192 19.0412 28.9449 19.2476 28.9449 19.2847C28.9449 19.3219 28.8346 19.4085 28.6999 19.4772C28.5458 19.5559 28.4549 19.6448 28.4549 19.7169C28.4549 19.9018 28.6341 19.919 28.9164 19.7612L29.1789 19.6144L29.4233 20.143C29.7925 20.9417 30.1086 22.1778 30.1086 22.8234V23.0297H29.6016C29.0334 23.0297 28.8014 23.1283 28.8342 23.3557C28.8627 23.5533 29.1087 23.6403 29.6424 23.6413L30.1255 23.6422L30.0846 24.0929C30.0099 24.9184 29.7048 25.978 29.3131 26.7725L29.1739 27.0546L28.9049 26.9043C28.7569 26.8215 28.5951 26.7695 28.5453 26.7886C28.3744 26.8542 28.4488 27.0462 28.6999 27.1873C28.8346 27.263 28.9449 27.3577 28.9449 27.3976C28.9449 27.5327 28.1617 28.515 27.727 28.9249C27.4896 29.1489 27.0963 29.472 26.853 29.6428L26.4107 29.9535L26.2383 29.6766C25.9547 29.221 25.6766 29.3808 25.9342 29.8511C26.1006 30.1548 26.0914 30.1649 25.3783 30.4663C24.6895 30.7574 23.7808 30.9884 23.1415 31.0349L22.6362 31.0715V30.4793C22.6362 29.9072 22.631 29.8846 22.4833 29.8173C22.357 29.7598 22.3091 29.767 22.2077 29.8587C22.1022 29.9542 22.0849 30.0473 22.0849 30.5207V31.0714L21.5796 31.0316C20.7615 30.9672 19.7147 30.6696 18.9585 30.2863L18.6519 30.131L18.8151 29.8526C18.9582 29.6084 18.9673 29.5632 18.8888 29.4846C18.7845 29.3804 18.6134 29.4274 18.5645 29.5737C18.5458 29.6295 18.4823 29.7375 18.4235 29.8137L18.3166 29.9522L17.915 29.6606C17.2933 29.2091 16.9091 28.8584 16.4888 28.3584C16.1117 27.9097 15.7763 27.4471 15.7763 27.3755C15.7763 27.3558 15.8865 27.2778 16.0213 27.202C16.1774 27.1142 16.2663 27.0206 16.2663 26.9438C16.2663 26.7623 16.1091 26.7381 15.8651 26.882C15.745 26.9529 15.6251 27.0109 15.5987 27.0109C15.5331 27.0109 15.1394 26.1511 14.9842 25.6692C14.8334 25.2007 14.6857 24.4146 14.661 23.9484L14.6432 23.6116L15.2229 23.5938C15.8258 23.5753 15.8961 23.5439 15.8979 23.2922C15.8992 23.091 15.721 23.0297 15.1351 23.0297H14.6083L14.6456 22.7081C14.7144 22.1157 14.8568 21.3986 14.9842 21.0027C15.1514 20.4834 15.5351 19.661 15.6103 19.661C15.6431 19.661 15.7635 19.7188 15.8778 19.7894C15.9921 19.8601 16.1263 19.9023 16.1759 19.8833C16.3436 19.819 16.2744 19.6146 16.0366 19.4716C15.9103 19.3957 15.7958 19.3249 15.7823 19.3144C15.7384 19.2804 16.1919 18.6381 16.5703 18.1985C16.908 17.8061 17.7168 17.1092 18.1601 16.8284L18.341 16.7139L18.4827 16.9614C18.6495 17.2529 18.7753 17.3194 18.8825 17.1728C18.9475 17.0839 18.9351 17.0242 18.806 16.8037L18.6518 16.5407L19.0225 16.3535C19.7866 15.9678 21.1147 15.6185 21.8173 15.6185H22.0849V16.1684C22.0849 16.6832 22.0944 16.7244 22.234 16.8158C22.3498 16.8918 22.4111 16.8984 22.5096 16.8457C22.6239 16.7845 22.6362 16.7216 22.6362 16.1983V15.6185H22.9357C23.3159 15.6185 24.142 15.7704 24.6574 15.935C25.2161 16.1134 26.0661 16.4803 26.0661 16.543C26.0661 16.572 26.0111 16.6858 25.9439 16.7961C25.7976 17.036 25.7876 17.1851 25.9144 17.2337C26.0016 17.2672 26.2475 17.0833 26.2518 16.9813C26.2529 16.956 26.2929 16.8838 26.3407 16.8207C26.4235 16.7112 26.4459 16.7191 26.8244 16.9891C27.0426 17.1449 27.2438 17.2707 27.2715 17.2688C27.2991 17.2669 27.4412 17.1141 27.5872 16.9292C27.9027 16.5296 27.9123 16.5506 27.1989 16.076C26.3306 15.4982 25.2436 15.0411 24.1368 14.7883C23.5326 14.6503 21.6047 14.6152 20.9518 14.7303ZM29.1349 15.4195C29.0362 15.5121 27.997 16.7731 26.8255 18.2216C25.654 19.6702 24.1748 21.4968 23.5384 22.2807L22.3814 23.706L22.1494 23.5222C22.0217 23.4211 21.15 22.7178 20.2123 21.9591C18.6977 20.7338 18.4829 20.58 18.2902 20.5817C17.9247 20.5849 17.6956 20.8647 17.7633 21.2252C17.7968 21.4038 18.0376 21.6204 19.6989 22.9667C22.1175 24.9267 21.9622 24.8227 22.4281 24.7938C22.6336 24.7811 22.87 24.7259 22.9534 24.6713C23.0368 24.6167 24.0951 23.3514 25.3052 21.8595C30.4995 15.4557 30.0437 16.04 30.0456 15.7842C30.0493 15.2893 29.5055 15.0715 29.1349 15.4195ZM3.49121 18.089C3.47572 18.1293 3.47045 18.8923 3.47945 19.7845L3.49581 21.4066L5.19645 21.4229L6.8971 21.4392L6.88081 19.7385L6.86451 18.0379L5.19192 18.0268C3.9417 18.0185 3.51222 18.0343 3.49121 18.089ZM7.7944 18.0471C7.77143 18.0701 7.75263 18.8423 7.75263 19.7631V21.4372H9.46858H11.1845L11.1683 19.7376L11.152 18.0379L9.49406 18.0216C8.58225 18.0127 7.81743 18.0242 7.7944 18.0471ZM12.0802 18.0488C12.0581 18.0708 12.0401 18.8423 12.0401 19.7631V21.4372H12.6502H13.2603L13.3288 21.1769C13.5772 20.2312 13.9782 19.2597 14.4183 18.537C14.5588 18.3061 14.6738 18.0971 14.6738 18.0724C14.6738 18.0166 12.1355 17.9935 12.0802 18.0488Z" fill="#3A2A46"/>
</svg>
