<svg width="500" height="272" viewBox="0 0 500 272" fill="none" xmlns="http://www.w3.org/2000/svg">
<path d="M66.7942 113.948C92.5654 103.58 74.4562 -52.7203 189.231 18.6753C213.46 33.7493 244.94 25.5095 278.557 17.2698C308.269 9.98815 339.653 2.70843 369.182 11.5178C426.986 28.766 426.598 77.9125 421.005 96.4301C409.708 133.832 423.4 127.061 456.014 143.13C507.173 168.338 491.636 270.207 443.306 270.631C394.977 271.055 29.6052 270.631 29.6052 270.631C29.6052 270.631 -16.8235 147.597 66.7942 113.948Z" fill="#EBF2F9"/>
<path d="M66.7943 229.379V269.933H86.4733V229.379H66.7943Z" fill="#DCEAF9"/>
<path d="M379.334 269.903V115.318H356.347V97.5931H350.968V67.1181H322.119V97.5931H295.149V55.821L265.387 44.5575V80.1715H258.6V32.7439L228.839 42.6059V113.844H191.201V155.922H177.136V166.521H144.833V148.269H126.286V98.6675H103.375V190.229H80.4643V269.903H379.334Z" fill="#D5E7F7"/>
<path d="M253.751 53.9089H233.674V46.5563H253.751V53.9089Z" fill="#C4D9ED"/>
<path d="M253.751 67.7213H233.674V60.3686H253.751V67.7213Z" fill="#C4D9ED"/>
<path d="M253.751 80.1459H233.674V72.7952H253.751V80.1459Z" fill="#C4D9ED"/>
<path d="M103.385 132.429V143.777H126.498V132.429H103.385Z" fill="#C4D9ED"/>
<path d="M103.385 178.612H126.498V167.264H103.385V178.612Z" fill="#C4D9ED"/>
<path d="M103.385 195.756H126.498V184.406H103.385V195.756Z" fill="#C4D9ED"/>
<path d="M126.498 213.69H103.385V202.342H126.498V213.69Z" fill="#C4D9ED"/>
<path d="M103.385 231.256H126.498V219.907H103.385V231.256Z" fill="#C4D9ED"/>
<path d="M126.498 249.192H103.385V237.843H126.498V249.192Z" fill="#C4D9ED"/>
<path d="M290.81 72.7952H269.695V80.1459H290.81V72.7952Z" fill="#C4D9ED"/>
<path d="M290.81 60.481H269.695V67.8336H290.81V60.481Z" fill="#C4D9ED"/>
<path d="M233.162 84.8433V92.1959H290.81V84.8433H233.162Z" fill="#C4D9ED"/>
<path d="M233.162 103.251H290.81V95.8979H233.162V103.251Z" fill="#C4D9ED"/>
<path d="M233.162 113.948H290.81V106.878H233.162V113.948Z" fill="#C4D9ED"/>
<path d="M103.385 161.469H126.498V150.12H103.385V161.469Z" fill="#C4D9ED"/>
<path d="M197.351 128.194H202.395V121.084H197.351V128.194Z" fill="#C4D9ED"/>
<path d="M206.785 128.194H211.831V121.084H206.785V128.194Z" fill="#C4D9ED"/>
<path d="M216.008 128.194H221.055V121.084H216.008V128.194Z" fill="#C4D9ED"/>
<path d="M224.755 128.194H229.799V121.084H224.755V128.194Z" fill="#C4D9ED"/>
<path d="M233.666 128.194H238.713V121.084H233.666V128.194Z" fill="#C4D9ED"/>
<path d="M242.683 128.194H247.727V121.084H242.683V128.194Z" fill="#C4D9ED"/>
<path d="M252.117 128.194H257.161V121.084H252.117V128.194Z" fill="#C4D9ED"/>
<path d="M261.34 128.194H266.387V121.084H261.34V128.194Z" fill="#C4D9ED"/>
<path d="M270.087 128.194H275.131V121.084H270.087V128.194Z" fill="#C4D9ED"/>
<path d="M278.999 128.194H284.045V121.084H278.999V128.194Z" fill="#C4D9ED"/>
<path d="M288.287 128.194H293.333V121.084H288.287V128.194Z" fill="#C4D9ED"/>
<path d="M297.721 128.194H302.768V121.084H297.721V128.194Z" fill="#C4D9ED"/>
<path d="M306.945 128.194H311.991V121.084H306.945V128.194Z" fill="#C4D9ED"/>
<path d="M315.691 128.194H320.735V121.084H315.691V128.194Z" fill="#C4D9ED"/>
<path d="M324.603 128.194H329.649V121.084H324.603V128.194Z" fill="#C4D9ED"/>
<path d="M333.619 128.194H338.664V121.084H333.619V128.194Z" fill="#C4D9ED"/>
<path d="M343.053 128.194H348.1V121.084H343.053V128.194Z" fill="#C4D9ED"/>
<path d="M352.277 128.194H357.323V121.084H352.277V128.194Z" fill="#C4D9ED"/>
<path d="M361.023 128.194H366.068V121.084H361.023V128.194Z" fill="#C4D9ED"/>
<path d="M369.937 121.084V128.194H374.981V121.084H369.937Z" fill="#C4D9ED"/>
<path d="M197.351 140.745H202.395V133.633H197.351V140.745Z" fill="#C4D9ED"/>
<path d="M206.785 140.745H211.831V133.633H206.785V140.745Z" fill="#C4D9ED"/>
<path d="M216.008 140.745H221.055V133.633H216.008V140.745Z" fill="#C4D9ED"/>
<path d="M224.755 140.745H229.799V133.633H224.755V140.745Z" fill="#C4D9ED"/>
<path d="M233.666 140.745H238.713V133.633H233.666V140.745Z" fill="#C4D9ED"/>
<path d="M242.683 140.745H247.727V133.633H242.683V140.745Z" fill="#C4D9ED"/>
<path d="M252.117 140.745H257.161V133.633H252.117V140.745Z" fill="#C4D9ED"/>
<path d="M261.34 140.745H266.387V133.633H261.34V140.745Z" fill="#C4D9ED"/>
<path d="M270.087 140.745H275.131V133.633H270.087V140.745Z" fill="#C4D9ED"/>
<path d="M278.999 140.745H284.045V133.633H278.999V140.745Z" fill="#C4D9ED"/>
<path d="M288.287 140.745H293.333V133.633H288.287V140.745Z" fill="#C4D9ED"/>
<path d="M297.721 140.745H302.768V133.633H297.721V140.745Z" fill="#C4D9ED"/>
<path d="M306.945 140.745H311.991V133.633H306.945V140.745Z" fill="#C4D9ED"/>
<path d="M315.691 140.745H320.735V133.633H315.691V140.745Z" fill="#C4D9ED"/>
<path d="M324.603 140.745H329.649V133.633H324.603V140.745Z" fill="#C4D9ED"/>
<path d="M333.619 140.745H338.664V133.633H333.619V140.745Z" fill="#C4D9ED"/>
<path d="M343.053 140.745H348.1V133.633H343.053V140.745Z" fill="#C4D9ED"/>
<path d="M352.277 140.745H357.323V133.633H352.277V140.745Z" fill="#C4D9ED"/>
<path d="M361.023 140.745H366.068V133.633H361.023V140.745Z" fill="#C4D9ED"/>
<path d="M369.937 140.745H374.981V133.633H369.937V140.745Z" fill="#C4D9ED"/>
<path d="M197.351 153.101H202.395V145.989H197.351V153.101Z" fill="#C4D9ED"/>
<path d="M206.785 153.101H211.831V145.989H206.785V153.101Z" fill="#C4D9ED"/>
<path d="M216.008 153.101H221.055V145.989H216.008V153.101Z" fill="#C4D9ED"/>
<path d="M224.755 153.101H229.799V145.989H224.755V153.101Z" fill="#C4D9ED"/>
<path d="M233.666 153.101H238.713V145.989H233.666V153.101Z" fill="#C4D9ED"/>
<path d="M242.683 153.101H247.727V145.989H242.683V153.101Z" fill="#C4D9ED"/>
<path d="M252.117 153.101H257.161V145.989H252.117V153.101Z" fill="#C4D9ED"/>
<path d="M261.34 153.101H266.387V145.989H261.34V153.101Z" fill="#C4D9ED"/>
<path d="M270.087 153.101H275.131V145.989H270.087V153.101Z" fill="#C4D9ED"/>
<path d="M278.999 153.101H284.045V145.989H278.999V153.101Z" fill="#C4D9ED"/>
<path d="M288.287 153.101H293.333V145.989H288.287V153.101Z" fill="#C4D9ED"/>
<path d="M297.721 153.101H302.768V145.989H297.721V153.101Z" fill="#C4D9ED"/>
<path d="M306.945 153.101H311.991V145.989H306.945V153.101Z" fill="#C4D9ED"/>
<path d="M315.691 153.101H320.735V145.989H315.691V153.101Z" fill="#C4D9ED"/>
<path d="M324.603 153.101H329.649V145.989H324.603V153.101Z" fill="#C4D9ED"/>
<path d="M333.619 153.101H338.664V145.989H333.619V153.101Z" fill="#C4D9ED"/>
<path d="M343.053 153.101H348.1V145.989H343.053V153.101Z" fill="#C4D9ED"/>
<path d="M352.277 153.101H357.323V145.989H352.277V153.101Z" fill="#C4D9ED"/>
<path d="M361.023 153.101H366.068V145.989H361.023V153.101Z" fill="#C4D9ED"/>
<path d="M369.937 153.101H374.981V145.989H369.937V153.101Z" fill="#C4D9ED"/>
<path d="M197.351 166.229H202.395V159.119H197.351V166.229Z" fill="#C4D9ED"/>
<path d="M206.785 166.229H211.831V159.119H206.785V166.229Z" fill="#C4D9ED"/>
<path d="M216.008 166.229H221.055V159.119H216.008V166.229Z" fill="#C4D9ED"/>
<path d="M224.755 166.229H229.799V159.119H224.755V166.229Z" fill="#C4D9ED"/>
<path d="M233.666 166.229H238.713V159.119H233.666V166.229Z" fill="#C4D9ED"/>
<path d="M242.683 166.229H247.727V159.119H242.683V166.229Z" fill="#C4D9ED"/>
<path d="M252.117 166.229H257.161V159.119H252.117V166.229Z" fill="#C4D9ED"/>
<path d="M261.34 166.229H266.387V159.119H261.34V166.229Z" fill="#C4D9ED"/>
<path d="M270.087 166.229H275.131V159.119H270.087V166.229Z" fill="#C4D9ED"/>
<path d="M278.999 166.229H284.045V159.119H278.999V166.229Z" fill="#C4D9ED"/>
<path d="M288.287 166.229H293.333V159.119H288.287V166.229Z" fill="#C4D9ED"/>
<path d="M297.721 166.229H302.768V159.119H297.721V166.229Z" fill="#C4D9ED"/>
<path d="M306.945 166.229H311.991V159.119H306.945V166.229Z" fill="#C4D9ED"/>
<path d="M315.691 166.229H320.735V159.119H315.691V166.229Z" fill="#C4D9ED"/>
<path d="M324.603 166.229H329.649V159.119H324.603V166.229Z" fill="#C4D9ED"/>
<path d="M333.619 166.229H338.664V159.119H333.619V166.229Z" fill="#C4D9ED"/>
<path d="M343.053 166.229H348.1V159.119H343.053V166.229Z" fill="#C4D9ED"/>
<path d="M352.277 166.229H357.323V159.119H352.277V166.229Z" fill="#C4D9ED"/>
<path d="M361.023 166.229H366.068V159.119H361.023V166.229Z" fill="#C4D9ED"/>
<path d="M369.937 166.229H374.981V159.119H369.937V166.229Z" fill="#C4D9ED"/>
<path d="M197.351 178.778H202.395V171.668H197.351V178.778Z" fill="#C4D9ED"/>
<path d="M206.785 178.778H211.831V171.668H206.785V178.778Z" fill="#C4D9ED"/>
<path d="M216.008 178.778H221.055V171.668H216.008V178.778Z" fill="#C4D9ED"/>
<path d="M224.755 178.778H229.799V171.668H224.755V178.778Z" fill="#C4D9ED"/>
<path d="M233.666 178.778H238.713V171.668H233.666V178.778Z" fill="#C4D9ED"/>
<path d="M242.683 178.778H247.727V171.668H242.683V178.778Z" fill="#C4D9ED"/>
<path d="M252.117 178.778H257.161V171.668H252.117V178.778Z" fill="#C4D9ED"/>
<path d="M261.34 178.778H266.387V171.668H261.34V178.778Z" fill="#C4D9ED"/>
<path d="M270.087 178.778H275.131V171.668H270.087V178.778Z" fill="#C4D9ED"/>
<path d="M278.999 178.778H284.045V171.668H278.999V178.778Z" fill="#C4D9ED"/>
<path d="M288.287 178.778H293.333V171.668H288.287V178.778Z" fill="#C4D9ED"/>
<path d="M297.721 178.778H302.768V171.668H297.721V178.778Z" fill="#C4D9ED"/>
<path d="M306.945 178.778H311.991V171.668H306.945V178.778Z" fill="#C4D9ED"/>
<path d="M315.691 178.778H320.735V171.668H315.691V178.778Z" fill="#C4D9ED"/>
<path d="M324.603 178.778H329.649V171.668H324.603V178.778Z" fill="#C4D9ED"/>
<path d="M333.619 178.778H338.664V171.668H333.619V178.778Z" fill="#C4D9ED"/>
<path d="M343.053 178.778H348.1V171.668H343.053V178.778Z" fill="#C4D9ED"/>
<path d="M361.023 178.778H366.068V171.668H361.023V178.778Z" fill="#C4D9ED"/>
<path d="M352.277 178.778H357.323V171.668H352.277V178.778Z" fill="#C4D9ED"/>
<path d="M369.937 178.778H374.981V171.668H369.937V178.778Z" fill="#C4D9ED"/>
<path d="M197.351 191.135H202.395V184.023H197.351V191.135Z" fill="#C4D9ED"/>
<path d="M206.785 191.135H211.831V184.023H206.785V191.135Z" fill="#C4D9ED"/>
<path d="M216.008 191.135H221.055V184.023H216.008V191.135Z" fill="#C4D9ED"/>
<path d="M224.755 191.135H229.799V184.023H224.755V191.135Z" fill="#C4D9ED"/>
<path d="M233.666 191.135H238.713V184.023H233.666V191.135Z" fill="#C4D9ED"/>
<path d="M242.683 191.135H247.727V184.023H242.683V191.135Z" fill="#C4D9ED"/>
<path d="M252.117 191.135H257.161V184.023H252.117V191.135Z" fill="#C4D9ED"/>
<path d="M261.34 191.135H266.387V184.023H261.34V191.135Z" fill="#C4D9ED"/>
<path d="M270.087 191.135H275.131V184.023H270.087V191.135Z" fill="#C4D9ED"/>
<path d="M278.999 191.135H284.045V184.023H278.999V191.135Z" fill="#C4D9ED"/>
<path d="M288.287 191.135H293.333V184.023H288.287V191.135Z" fill="#C4D9ED"/>
<path d="M297.721 191.135H302.768V184.023H297.721V191.135Z" fill="#C4D9ED"/>
<path d="M306.945 191.135H311.991V184.023H306.945V191.135Z" fill="#C4D9ED"/>
<path d="M315.691 191.135H320.735V184.023H315.691V191.135Z" fill="#C4D9ED"/>
<path d="M324.603 191.135H329.649V184.023H324.603V191.135Z" fill="#C4D9ED"/>
<path d="M333.619 191.135H338.664V184.023H333.619V191.135Z" fill="#C4D9ED"/>
<path d="M343.053 191.135H348.1V184.023H343.053V191.135Z" fill="#C4D9ED"/>
<path d="M361.023 191.135H366.068V184.023H361.023V191.135Z" fill="#C4D9ED"/>
<path d="M369.937 191.135H374.981V184.023H369.937V191.135Z" fill="#C4D9ED"/>
<path d="M417.274 245.9H428.498V169.966H417.274V245.9Z" fill="#C4D9ED"/>
<path d="M417.274 268.876H405.226V216.132H417.274V268.876Z" fill="#ADC9E0"/>
<path d="M153.044 148.267V133.475H153.651V148.267H161.975V166.521L144.833 166.521L144.833 148.267H153.044Z" fill="#C4D9ED"/>
<path d="M103.385 110.022V98.6734H107.985V93.7335H108.593V98.6734H129.824V93.7335H130.432V98.6734H134.698V148.267H126.177V126.899H103.385V115.551H126.177V110.022H103.385Z" fill="#C4D9ED"/>
<path d="M352.914 181.019V245.031H417.274V169.966L352.914 181.019Z" fill="#D5E7F7"/>
<path d="M352.914 269.994H433.205V215.996H352.914V269.994Z" fill="#D5E7F7"/>
<path d="M352.914 201.528H433.205V183.978H352.914V201.528Z" fill="#C4D9ED"/>
<path d="M358.382 236.389H362.505V230.576H358.382V236.389Z" fill="#C4D9ED"/>
<path d="M366.093 236.389H370.217V230.576H366.093V236.389Z" fill="#C4D9ED"/>
<path d="M373.631 236.389H377.755V230.576H373.631V236.389Z" fill="#C4D9ED"/>
<path d="M380.779 236.389H384.902V230.576H380.779V236.389Z" fill="#C4D9ED"/>
<path d="M388.064 236.389H392.188V230.576H388.064V236.389Z" fill="#C4D9ED"/>
<path d="M395.433 236.389H399.556V230.576H395.433V236.389Z" fill="#C4D9ED"/>
<path d="M403.144 236.389H407.268V230.576H403.144V236.389Z" fill="#C4D9ED"/>
<path d="M410.682 236.389H414.806V230.576H410.682V236.389Z" fill="#C4D9ED"/>
<path d="M417.83 236.389H421.953V230.576H417.83V236.389Z" fill="#C4D9ED"/>
<path d="M425.115 230.576V236.389H429.239V230.576H425.115Z" fill="#C4D9ED"/>
<path d="M358.382 246.645H362.505V240.834H358.382V246.645Z" fill="#C4D9ED"/>
<path d="M366.093 246.645H370.217V240.834H366.093V246.645Z" fill="#C4D9ED"/>
<path d="M373.631 246.645H377.755V240.834H373.631V246.645Z" fill="#C4D9ED"/>
<path d="M380.779 246.645H384.902V240.834H380.779V246.645Z" fill="#C4D9ED"/>
<path d="M388.064 246.645H392.188V240.834H388.064V246.645Z" fill="#C4D9ED"/>
<path d="M395.433 246.645H399.556V240.834H395.433V246.645Z" fill="#C4D9ED"/>
<path d="M403.144 246.645H407.268V240.834H403.144V246.645Z" fill="#C4D9ED"/>
<path d="M410.682 246.645H414.806V240.834H410.682V246.645Z" fill="#C4D9ED"/>
<path d="M417.83 246.645H421.953V240.834H417.83V246.645Z" fill="#C4D9ED"/>
<path d="M425.115 246.645H429.239V240.834H425.115V246.645Z" fill="#C4D9ED"/>
<path d="M358.382 215.72H362.505V209.909H358.382V215.72Z" fill="#C4D9ED"/>
<path d="M366.093 215.72H370.217V209.909H366.093V215.72Z" fill="#C4D9ED"/>
<path d="M373.631 215.72H377.755V209.909H373.631V215.72Z" fill="#C4D9ED"/>
<path d="M380.779 215.72H384.902V209.909H380.779V215.72Z" fill="#C4D9ED"/>
<path d="M388.064 215.72H392.188V209.909H388.064V215.72Z" fill="#C4D9ED"/>
<path d="M395.433 215.72H399.556V209.909H395.433V215.72Z" fill="#C4D9ED"/>
<path d="M403.144 215.72H407.268V209.909H403.144V215.72Z" fill="#C4D9ED"/>
<path d="M410.682 215.72H414.806V209.909H410.682V215.72Z" fill="#C4D9ED"/>
<path d="M358.382 225.977H362.505V220.166H358.382V225.977Z" fill="#C4D9ED"/>
<path d="M366.093 225.977H370.217V220.166H366.093V225.977Z" fill="#C4D9ED"/>
<path d="M373.631 225.977H377.755V220.166H373.631V225.977Z" fill="#C4D9ED"/>
<path d="M380.779 225.977H384.902V220.166H380.779V225.977Z" fill="#C4D9ED"/>
<path d="M388.064 225.977H392.188V220.166H388.064V225.977Z" fill="#C4D9ED"/>
<path d="M395.433 225.977H399.556V220.166H395.433V225.977Z" fill="#C4D9ED"/>
<path d="M403.144 225.977H407.268V220.166H403.144V225.977Z" fill="#C4D9ED"/>
<path d="M410.682 225.977H414.806V220.166H410.682V225.977Z" fill="#C4D9ED"/>
<path d="M417.83 225.977H421.954V220.166H417.83V225.977Z" fill="#C4D9ED"/>
<path d="M425.115 225.977H429.239V220.166H425.115V225.977Z" fill="#C4D9ED"/>
<path d="M358.382 256.745H362.505V250.932H358.382V256.745Z" fill="#C4D9ED"/>
<path d="M366.093 256.745H370.217V250.932H366.093V256.745Z" fill="#C4D9ED"/>
<path d="M373.631 256.745H377.755V250.932H373.631V256.745Z" fill="#C4D9ED"/>
<path d="M380.779 256.745H384.902V250.932H380.779V256.745Z" fill="#C4D9ED"/>
<path d="M388.064 256.745H392.188V250.932H388.064V256.745Z" fill="#C4D9ED"/>
<path d="M395.433 256.745H399.556V250.932H395.433V256.745Z" fill="#C4D9ED"/>
<path d="M403.144 256.745H407.268V250.932H403.144V256.745Z" fill="#C4D9ED"/>
<path d="M410.682 256.745H414.806V250.932H410.682V256.745Z" fill="#C4D9ED"/>
<path d="M417.83 256.745H421.953V250.932H417.83V256.745Z" fill="#C4D9ED"/>
<path d="M425.115 256.745H429.239V250.932H425.115V256.745Z" fill="#C4D9ED"/>
<path d="M411.768 157.912V173.13H412.959V157.912H411.768Z" fill="#D5E7F7"/>
<path d="M359.04 194.902H362.505V188.908H359.04V194.902Z" fill="#D5E7F7"/>
<path d="M393.442 194.902H396.907V188.908H393.442V194.902Z" fill="#D5E7F7"/>
<path d="M420.808 188.908V194.902H424.274V188.908H420.808Z" fill="#D5E7F7"/>
<path d="M139.091 270.13H254.64V202.539H139.091V270.13Z" fill="#C4D9ED"/>
<path d="M211.283 218.677H217.443V209.271H211.283V218.677Z" fill="#D5E7F7"/>
<path d="M200.095 218.677H206.255V209.271H200.095V218.677Z" fill="#D5E7F7"/>
<path d="M189.231 218.677H195.391V209.271H189.231V218.677Z" fill="#D5E7F7"/>
<path d="M178.295 218.677H184.455V209.271H178.295V218.677Z" fill="#D5E7F7"/>
<path d="M167.432 218.677H173.592V209.271H167.432V218.677Z" fill="#D5E7F7"/>
<path d="M156.038 218.677H162.198V209.271H156.038V218.677Z" fill="#D5E7F7"/>
<path d="M145.174 218.677H151.335V209.271H145.174V218.677Z" fill="#D5E7F7"/>
<path d="M243.946 232.588H250.106V223.182H243.946V232.588Z" fill="#D5E7F7"/>
<path d="M233.083 232.588H239.243V223.182H233.083V232.588Z" fill="#D5E7F7"/>
<path d="M222.147 232.588H228.307V223.182H222.147V232.588Z" fill="#D5E7F7"/>
<path d="M211.283 232.588H217.443V223.182H211.283V232.588Z" fill="#D5E7F7"/>
<path d="M200.095 232.588H206.255V223.182H200.095V232.588Z" fill="#D5E7F7"/>
<path d="M189.231 232.588H195.391V223.182H189.231V232.588Z" fill="#D5E7F7"/>
<path d="M178.295 232.588H184.455V223.182H178.295V232.588Z" fill="#D5E7F7"/>
<path d="M167.432 232.588H173.592V223.182H167.432V232.588Z" fill="#D5E7F7"/>
<path d="M156.038 232.588H162.198V223.182H156.038V232.588Z" fill="#D5E7F7"/>
<path d="M145.174 232.588H151.335V223.182H145.174V232.588Z" fill="#D5E7F7"/>
<path d="M243.946 247.53H250.106V238.125H243.946V247.53Z" fill="#D5E7F7"/>
<path d="M233.083 247.53H239.243V238.125H233.083V247.53Z" fill="#D5E7F7"/>
<path d="M222.147 247.53H228.307V238.125H222.147V247.53Z" fill="#D5E7F7"/>
<path d="M211.283 247.53H217.443V238.125H211.283V247.53Z" fill="#D5E7F7"/>
<path d="M200.095 247.53H206.255V238.125H200.095V247.53Z" fill="#D5E7F7"/>
<path d="M189.231 247.53H195.391V238.125H189.231V247.53Z" fill="#D5E7F7"/>
<path d="M178.295 247.53H184.455V238.125H178.295V247.53Z" fill="#D5E7F7"/>
<path d="M167.432 247.53H173.592V238.125H167.432V247.53Z" fill="#D5E7F7"/>
<path d="M156.038 247.53H162.198V238.125H156.038V247.53Z" fill="#D5E7F7"/>
<path d="M145.174 247.53H151.335V238.125H145.174V247.53Z" fill="#D5E7F7"/>
<path d="M243.946 261.441H250.106V252.036H243.946V261.441Z" fill="#D5E7F7"/>
<path d="M233.083 261.441H239.243V252.036H233.083V261.441Z" fill="#D5E7F7"/>
<path d="M178.898 205.429H154.786V184.406L178.898 193.639V205.429Z" fill="#C4D9ED"/>
<path d="M297.735 270.13H352.914V210.106L297.735 229.208V270.13Z" fill="#C4D9ED"/>
<path d="M299.192 232.852H351.457V230.997H299.192V232.852Z" fill="#D5E7F7"/>
<path d="M299.192 238.815H351.457V236.96H299.192V238.815Z" fill="#D5E7F7"/>
<path d="M299.192 244.776H351.457V242.921H299.192V244.776Z" fill="#D5E7F7"/>
<path d="M299.192 250.739H351.457V248.884H299.192V250.739Z" fill="#D5E7F7"/>
<path d="M299.192 256.7H351.457V254.845H299.192V256.7Z" fill="#D5E7F7"/>
<path d="M299.192 262.661H351.457V260.806H299.192V262.661Z" fill="#D5E7F7"/>
<path d="M150.148 202.342H154.786L154.786 184.406L150.148 184.406V202.342Z" fill="#C4D9ED"/>
<path d="M169.286 199.566V193.406H159.88V199.566H169.286Z" fill="#D5E7F7"/>
<path d="M344.782 97.0905H347.979V69.9645H344.782V97.0905Z" fill="#C4D9ED"/>
<path d="M338.423 97.0905H341.62V69.9645H338.423V97.0905Z" fill="#C4D9ED"/>
<path d="M332.149 97.0905H335.346V69.9645H332.149V97.0905Z" fill="#C4D9ED"/>
<path d="M325.657 97.0905H328.855V69.9645H325.657V97.0905Z" fill="#C4D9ED"/>
<path d="M25.7414 255.679H278.853L268.575 217.721H25.7414V255.679Z" fill="#1C2948"/>
<path d="M141.032 180.564L141.031 180.562L141.052 180.564H141.032Z" fill="#163560"/>
<path d="M213.73 209.182H213.728C209.933 209.04 205.991 208.963 201.894 208.963C201.894 208.963 179.223 189.29 152.998 182.594C179.961 189.253 213.73 209.182 213.73 209.182Z" fill="#163560"/>
<path d="M8.39623 223.95V202.229C8.39623 202.229 33.8804 199.316 49.2921 193.733C84.9698 180.629 104.144 180.384 136.545 180.384C161.145 180.384 186.06 196.86 196.631 204.792C200.195 207.467 204.516 208.943 208.971 209.04C247.885 209.894 271.942 217.662 283.889 222.906C289.487 225.364 293.091 230.911 293.091 237.025V244.339C293.895 244.339 294.548 244.991 294.548 245.795V257.93C294.548 258.734 293.895 259.387 293.091 259.387H269.868C272.168 255.263 273.438 250.487 273.31 245.403C272.947 230.919 261.118 219.125 246.633 218.803C231.271 218.464 218.711 230.816 218.711 246.101C218.711 250.924 219.966 255.454 222.16 259.387H79.2837C81.5843 255.263 82.8531 250.487 82.7256 245.403C82.3623 230.919 70.533 219.125 56.0487 218.803C40.686 218.464 28.1256 230.816 28.1256 246.101C28.1256 250.924 29.3812 255.454 31.5762 259.387H25.8711C6.12676 259.387 3.32921 239.194 3.14411 229.294C3.08911 226.357 5.45871 223.95 8.39623 223.95Z" fill="#F1A34F"/>
<path d="M149.054 184.307C171.595 190.012 195.766 209.509 195.766 209.509L131.786 208.141C129.277 208.088 127.017 206.609 125.962 204.333L116.158 183.176H139.88C142.973 183.176 146.055 183.548 149.054 184.307Z" fill="#163560"/>
<path d="M112.396 183.663L121.379 204.238C122.069 205.821 120.91 207.591 119.184 207.593C110.12 207.597 86.3219 207.26 72.6227 203.828C69.332 203.004 68.2275 198.863 70.6757 196.515C76.2425 191.175 88.3473 183.663 112.396 183.663Z" fill="#163560"/>
<path d="M291.427 230.047H282.078C282.078 230.047 266.791 215.778 242.261 211.735C242.261 211.735 287.577 216.728 291.427 230.047Z" fill="#B64C41"/>
<path d="M8.39623 223.95H10.8709C12.2569 223.95 13.522 223.156 14.1142 221.904C15.5443 218.876 18.6856 213.128 23.5051 209.042C25.3712 207.461 24.2543 204.414 21.8076 204.414H8.39625L8.39623 223.95Z" fill="#B64C41"/>
<path d="M131.115 214.183H143.549C144.236 214.183 144.793 213.625 144.793 212.939C144.793 212.251 144.236 211.695 143.549 211.695H131.115C130.427 211.695 129.871 212.251 129.871 212.939C129.871 213.625 130.427 214.183 131.115 214.183Z" fill="#163560"/>
<path d="M76.1415 214.183H88.5762C89.2632 214.183 89.82 213.625 89.82 212.939C89.82 212.251 89.2632 211.695 88.5762 211.695H76.1415C75.4546 211.695 74.8977 212.251 74.8977 212.939C74.8977 213.625 75.4546 214.183 76.1415 214.183Z" fill="#163560"/>
<path d="M86.6689 222.251H198.782C203.418 222.251 206.27 227.325 203.86 231.285L196.639 243.154C195.068 245.736 191.638 246.444 189.176 244.69C179.59 237.855 151.977 223.676 86.6689 222.251Z" fill="#DD7F30"/>
<path d="M127.585 169.965H133.336C134.087 169.965 134.758 170.436 135.012 171.143L138.401 180.564H125.803V171.746C125.803 170.761 126.601 169.965 127.585 169.965Z" fill="#F1A34F"/>
<path d="M125.803 180.414V173.97H128.27C129.972 173.97 131.489 175.04 132.061 176.641L133.407 180.414H125.803Z" fill="#163560"/>
<path d="M160.373 225.445V233.954H151.863V225.445H160.373Z" fill="#163560"/>
<path d="M151.863 242.462H143.354V233.954L151.863 233.954L151.863 242.462Z" fill="#163560"/>
<path d="M143.354 225.445L143.354 233.954L134.845 233.954V225.445H143.354Z" fill="#163560"/>
<path d="M134.845 242.462H126.337V233.954L134.845 233.954L134.845 242.462Z" fill="#163560"/>
<path d="M126.337 225.445L126.337 233.954L117.828 233.954V225.445H126.337Z" fill="#163560"/>
<path d="M31.4577 246.239C31.4577 259.355 42.0903 269.988 55.2062 269.988C68.3221 269.988 78.9547 259.355 78.9547 246.239C78.9547 233.122 68.3221 222.492 55.2062 222.492C42.0903 222.492 31.4577 233.122 31.4577 246.239Z" fill="#2D3A62"/>
<path d="M48.0911 248.226C47.9151 247.593 47.8189 246.927 47.8189 246.239C47.8189 245.527 47.922 244.837 48.1102 244.187L43.013 241.039C42.331 242.635 41.9525 244.392 41.9525 246.239C41.9525 248.062 42.3208 249.797 42.986 251.378L48.0911 248.226ZM53.1907 259.342V253.345C52.0576 253.026 51.0351 252.442 50.194 251.664L45.1006 254.81C47.1205 257.189 49.9628 258.849 53.1907 259.342ZM58.5469 246.239C58.5469 244.394 57.0511 242.898 55.2062 242.898C53.3614 242.898 51.8656 244.394 51.8656 246.239C51.8656 248.084 53.3614 249.58 55.2062 249.58C57.0511 249.58 58.5469 248.084 58.5469 246.239ZM57.2218 259.342C60.4497 258.849 63.2922 257.189 65.3121 254.81L60.2185 251.664C59.3773 252.442 58.3549 253.026 57.2218 253.345V259.342ZM67.4264 251.378C68.0917 249.797 68.4599 248.062 68.4599 246.239C68.4599 244.392 68.0815 242.635 67.3994 241.039L62.3022 244.187C62.4907 244.837 62.5936 245.527 62.5936 246.239C62.5936 246.927 62.4974 247.593 62.3214 248.226L67.4264 251.378ZM57.2218 233.138V239.133C58.332 239.446 59.3367 240.012 60.168 240.767L65.2675 237.617C63.2504 235.265 60.4262 233.627 57.2218 233.138ZM53.1907 233.138C49.9864 233.627 47.1621 235.265 45.1451 237.617L50.2445 240.767C51.0757 240.012 52.0805 239.446 53.1907 239.133V233.138ZM55.2062 231.526C63.3326 231.526 69.9202 238.114 69.9202 246.239C69.9202 254.366 63.3326 260.954 55.2062 260.954C47.0799 260.954 40.4923 254.366 40.4923 246.239C40.4923 238.114 47.0799 231.526 55.2062 231.526Z" fill="#98BDF4"/>
<path d="M222.243 246.274C222.243 259.389 232.876 270.022 245.993 270.022C259.109 270.022 269.742 259.389 269.742 246.274C269.742 233.158 259.109 222.525 245.993 222.525C232.876 222.525 222.243 233.158 222.243 246.274Z" fill="#2D3A62"/>
<path d="M238.878 248.259C238.701 247.629 238.604 246.962 238.604 246.274C238.604 245.561 238.709 244.873 238.896 244.22L233.799 241.072C233.117 242.669 232.738 244.427 232.738 246.274C232.738 248.096 233.107 249.832 233.773 251.413L238.878 248.259ZM243.978 259.375V253.381C242.845 253.059 241.821 252.476 240.98 251.699L235.886 254.845C237.907 257.225 240.749 258.882 243.978 259.375ZM249.334 246.274C249.334 244.429 247.838 242.933 245.993 242.933C244.148 242.933 242.651 244.429 242.651 246.274C242.651 248.119 244.148 249.614 245.993 249.614C247.838 249.614 249.334 248.119 249.334 246.274ZM248.007 259.375C251.236 258.882 254.079 257.225 256.099 254.845L251.005 251.699C250.164 252.476 249.141 253.059 248.007 253.381V259.375ZM258.212 251.413C258.878 249.832 259.247 248.096 259.247 246.274C259.247 244.427 258.869 242.669 258.187 241.072L253.089 244.22C253.276 244.873 253.381 245.561 253.381 246.274C253.381 246.962 253.284 247.629 253.107 248.259L258.212 251.413ZM248.007 233.172V239.168C249.119 239.482 250.122 240.047 250.954 240.8L256.054 237.652C254.037 235.301 251.212 233.661 248.007 233.172ZM243.978 233.172C240.773 233.661 237.948 235.301 235.931 237.652L241.031 240.8C241.863 240.047 242.866 239.482 243.978 239.168V233.172ZM245.993 231.559C254.118 231.559 260.706 238.147 260.706 246.274C260.706 254.4 254.118 260.988 245.993 260.988C237.867 260.988 231.279 254.4 231.279 246.274C231.279 238.147 237.867 231.559 245.993 231.559Z" fill="#98BDF4"/>
<path d="M368.301 189.206C367.25 189.206 366.32 188.995 365.513 188.593C355.488 183.613 364.796 149.415 364.796 149.415C364.796 149.415 365.269 147.873 367.092 147.049C368.039 146.627 369.353 146.401 371.175 146.698C376.452 147.573 377.469 149.765 377.68 150.994C377.906 152.237 382.675 189.135 368.301 189.206Z" fill="#2B478B"/>
<path d="M365.513 188.593C355.488 183.613 364.796 149.415 364.796 149.415C364.796 149.415 365.269 147.873 367.092 147.049C370.966 148.066 371.772 149.905 371.983 150.993C372.174 152.151 376.276 183.824 365.513 188.593Z" fill="#233862"/>
<path d="M386.148 259.184C386.148 259.184 388.433 261.301 387.987 262.807C387.542 264.311 385.48 265.314 385.202 267.152C384.922 268.991 386.552 270.28 385.549 270.28C384.548 270.28 378.023 269.994 378.023 269.994C378.023 269.994 377.286 268.701 379.068 268.311C380.852 267.92 381.524 265.76 381.411 263.753C381.301 261.748 381.579 259.074 381.579 259.074L385.368 258.181L386.148 259.184Z" fill="#233862"/>
<path d="M358.121 264.847C358.121 264.847 358.677 269.304 357.676 269.805C356.673 270.308 344.691 270.14 344.691 270.14C344.691 270.14 344.691 268.636 346.753 268.301C348.815 267.968 352.438 266.742 353.049 264.011C353.662 261.279 358.121 264.847 358.121 264.847Z" fill="#233862"/>
<path d="M347.284 196.777C347.284 196.777 347.962 205.224 348.756 215.378C349.838 229.17 351.139 246.113 351.268 249.322C351.49 254.895 352.383 263.81 352.383 263.81C352.383 263.81 354.498 265.927 358.734 265.035C358.734 265.035 362.509 252.308 363.588 238.845C363.603 238.624 363.621 238.401 363.637 238.179C364.64 224.471 366.2 195.608 366.2 195.608L347.284 196.777Z" fill="#2B478B"/>
<path d="M347.284 196.777C347.284 196.777 347.962 205.224 348.756 215.378L363.588 238.845C363.603 238.624 363.621 238.401 363.637 238.179C364.64 224.471 366.2 195.608 366.2 195.608L347.284 196.777Z" fill="#233862"/>
<path d="M350.377 197.78C350.377 197.78 362.578 228.372 370.603 242.748C378.626 257.124 381.134 261.135 381.134 261.135C381.134 261.135 385.73 259.296 386.148 258.043C386.148 258.043 383.081 230.29 377.708 223.525C374.67 219.7 371.104 208.228 370.936 204.216C370.769 200.205 369.85 192.265 369.85 192.265L350.377 197.78Z" fill="#2B478B"/>
<path d="M328.823 163.101L326.255 163.189C325.754 163.207 325.267 163.069 324.824 162.837C323.903 162.35 322.078 161.827 320.58 164.112C320.58 164.112 319.801 165.519 320.812 165.925C321.825 166.332 321.473 166 322.892 166.609C323.956 167.065 325.048 167.051 325.797 166.594C326.434 166.205 327.236 166.196 327.962 166.377L330.308 166.962L328.823 163.101Z" fill="#AB7041"/>
<path d="M356.635 150.562C356.091 147.359 356.075 145.46 356.075 145.46L362.267 140.469C362.036 147.331 366.432 150.631 366.432 150.631C366.432 150.631 358.183 154.692 353.414 153.187C353.414 153.187 354.587 151.685 356.635 150.562Z" fill="#9C5F33"/>
<path d="M354.617 145.346C354.617 145.346 362.494 146.655 363.233 141.737C363.972 136.818 365.486 133.676 360.489 132.634C355.492 131.591 354.23 133.32 353.584 134.9C352.937 136.481 352.586 144.879 354.617 145.346Z" fill="#AB7041"/>
<path d="M326.032 164.713C326.132 163.209 326.655 161.687 326.655 161.687C326.655 161.687 340.907 160.903 342.249 160.672C343.594 160.442 360.978 152.113 360.978 152.113L369.355 161.593C369.355 161.593 346.97 167.771 343.554 168.287C337.911 169.141 326.349 166.903 326.349 166.903C326.349 166.903 325.955 165.896 326.032 164.713Z" fill="#963333"/>
<path d="M370.773 193.834C370.791 194.114 370.475 194.429 370.107 194.676C369.809 194.885 369.458 195.042 369.249 195.149C368.196 195.622 367.162 196.042 366.146 196.41C363.708 197.321 361.307 197.936 358.695 198.181C355.908 198.46 352.805 198.181 350.44 197.954C349.107 197.794 348.021 197.672 347.355 197.672H347.266C347.073 197.672 346.899 197.603 346.757 197.481C346.653 197.41 346.566 193.239 346.617 187.629C346.617 186.838 346.635 186.032 346.635 185.192C346.635 184.928 346.635 184.63 346.671 184.368V184.28C346.688 181.65 346.775 178.865 346.899 176.113V176.06C347.161 169.943 347.635 164.051 348.459 160.775C349.405 156.935 351.614 154.41 353.611 152.535L355.259 151.08C355.399 151.116 355.539 151.133 355.681 151.151C357.187 151.396 358.784 151.256 360.396 150.467C362.271 149.537 364.341 148.522 364.672 148.766C364.707 148.801 364.761 148.837 364.796 148.872C365.374 149.328 365.9 149.905 366.373 150.589C366.408 150.607 366.409 150.607 366.409 150.625H366.426C366.811 151.185 367.179 151.815 367.512 152.517C368.056 153.623 368.512 154.902 368.914 156.322C369.984 160.16 370.511 164.999 370.493 170.17C370.493 171.484 370.457 172.817 370.369 174.165C370.353 174.552 370.335 174.92 370.317 175.289C370.16 178.636 370.177 181.739 370.264 184.455V184.544C370.353 187.295 370.511 189.627 370.633 191.362C370.704 192.415 370.755 193.254 370.773 193.834Z" fill="#B64C41"/>
<path d="M370.635 191.366C370.384 187.711 369.949 181.427 370.375 174.175C370.449 172.825 370.491 171.484 370.495 170.166C368.865 166.209 367.53 163.339 367.53 163.339H363.42C363.42 163.339 360.404 183.931 370.635 191.366Z" fill="#963333"/>
<path d="M363.239 141.264C363.239 141.264 362.43 141.13 362.561 140.016C362.691 138.902 362.691 137.447 361.784 137.717C360.879 137.989 360.834 138.715 360.463 138.291C360.091 137.867 360.085 136.085 357.39 135.961C354.697 135.837 353.603 136.773 352.35 136.223C351.098 135.673 351.031 133.777 351.031 133.777C351.031 133.777 351.388 134.453 351.926 134.67C351.926 134.67 349.836 131.812 352.255 129.85C354.676 127.891 357.142 129.174 358.541 129.259C361.626 129.446 363.619 129.631 364.626 131.658C365.634 133.684 365.218 139.312 363.239 141.264Z" fill="#2B478B"/>
<path d="M383.079 265.947C382.442 267.424 383.138 269.133 384.632 269.761C386.129 270.39 387.855 269.702 388.492 268.224C389.127 266.746 388.431 265.038 386.937 264.41C385.443 263.781 383.716 264.469 383.079 265.947Z" fill="#4A82D3"/>
<path d="M410.26 265.334L406.079 266.828C405.657 266.978 405.21 267.055 404.76 267.051L381.029 266.858L378.429 262.616L410.26 265.334Z" fill="#4A82D3"/>
<path d="M396.692 218.447L390.032 202.166L390.024 202.135C389.984 201.989 388.945 198.492 382.969 197.721L382.943 197.715L378.027 196.811C377.392 196.645 375.557 196.373 374.719 197.075C374.347 197.386 374.197 197.873 374.26 198.563C374.386 199.929 378.817 210.487 381.766 217.248L380.828 217.648C380.069 215.912 373.422 200.621 373.243 198.656C373.146 197.627 373.422 196.834 374.059 196.302C375.431 195.155 377.995 195.758 378.269 195.827L383.117 196.72C389.551 197.554 390.871 201.4 391.003 201.841L397.64 218.068L396.692 218.447Z" fill="#4A82D3"/>
<path d="M383.962 213.647L371.161 216.203C371.161 216.203 367.43 217.713 368.183 224.183C368.845 229.876 371.762 261.819 371.762 261.819C371.762 261.819 372.371 268.466 386.73 266.509L383.962 213.647Z" fill="#4A82D3"/>
<path d="M376.88 222.45L380.392 258.222C380.534 259.669 381.057 260.997 381.857 262.113C383.337 264.179 385.77 265.513 388.494 265.525L400.373 265.575L400.666 265.577L408.106 265.608C408.855 265.61 409.576 265.515 410.26 265.334C410.422 265.293 410.58 265.245 410.735 265.194C413.308 264.345 415.285 262.269 416.014 259.718C416.326 258.632 416.41 257.463 416.219 256.263L410.761 222.04C410.177 218.389 407.165 215.594 403.446 215.251L401.346 215.056L400.846 215.011L400.426 214.971L393.41 214.323L392.549 214.244L385.78 213.617C384.719 213.521 383.69 213.625 382.736 213.901C382.673 213.919 382.61 213.937 382.547 213.956L382.157 214.09C378.821 215.324 376.507 218.662 376.88 222.45Z" fill="#739AF0"/>
<path d="M381.857 262.113C383.337 264.179 385.77 265.513 388.494 265.525L400.373 265.575L400.666 265.577L408.106 265.608C408.855 265.61 409.576 265.515 410.26 265.334C410.422 265.293 410.58 265.245 410.735 265.194C413.308 264.345 416.271 261.256 416.308 257.985C416.308 257.985 391.181 257.711 385.93 258.524C383.221 258.941 382.415 260.816 381.857 262.113Z" fill="#6793E7"/>
<path d="M400.426 214.971C400.477 215.003 405.993 218.313 406.722 221.228C407.473 224.222 412.511 259.148 412.563 259.499C412.567 259.529 412.71 262.904 409.884 265.425L410.26 265.334C410.422 265.293 410.58 265.245 410.735 265.194C413.389 262.578 413.026 259.57 413.006 259.438C412.799 257.997 407.913 224.138 407.158 221.122C406.495 218.478 402.606 215.849 401.346 215.056L400.846 215.011L400.426 214.971Z" fill="#4A82D3"/>
<path d="M392.549 214.244C393.343 214.77 396.373 217.039 397.025 221.234C397.792 226.156 400.818 261.904 400.848 262.263L400.85 262.289L400.857 262.312C400.863 262.332 401.289 264.26 400.075 265.573L400.373 265.575L400.666 265.577C401.829 264.169 401.364 262.444 401.293 262.202C401.198 261.098 398.23 226.05 397.469 221.169C396.905 217.552 394.65 215.308 393.41 214.323L392.549 214.244Z" fill="#4A82D3"/>
<path d="M382.157 214.09C382.18 214.104 383.325 214.741 384.313 215.845C385.301 216.951 386.377 218.654 386.749 221.055C387.516 225.975 389.929 261.603 389.953 261.961L389.955 261.991L389.963 262.015C389.968 262.032 390.077 264.213 388.863 265.527L389.61 265.529C390.538 264.331 390.477 262.164 390.398 261.906C390.321 260.769 387.954 225.868 387.193 220.988C386.479 216.399 383.392 214.297 382.736 213.901C382.673 213.919 382.61 213.937 382.547 213.956L382.157 214.09Z" fill="#4A82D3"/>
<path d="M377.357 189.403L378.888 193.01C379.074 193.446 379.058 193.931 378.886 194.372C378.51 195.344 378.2 197.219 380.643 198.443C380.643 198.443 382.131 199.054 382.417 198.001C382.703 196.951 382.415 197.339 382.856 195.858C383.243 194.563 382.986 193.306 382.206 192.663C381.93 192.436 381.802 192.076 381.764 191.721L381.522 189.422L377.357 189.403Z" fill="#AB7041"/>
<path d="M380.704 193.014C379.223 193.304 377.619 193.185 377.619 193.185C377.619 193.185 373.223 179.608 372.657 178.366C372.092 177.126 359.6 162.444 359.6 162.444L364.804 149.422C364.804 149.422 378.315 171.989 379.687 175.161C381.954 180.4 382.74 192.149 382.74 192.149C382.74 192.149 381.867 192.787 380.704 193.014Z" fill="#B64C41"/>
<path d="M363.657 178.127C361.973 176.06 360.343 173.115 359.308 168.977C358.853 167.171 358.502 165.121 358.326 162.825C358.326 162.825 357.853 158.46 360.028 155.411C360.781 154.341 361.869 153.412 363.41 152.921C364.305 152.606 365.374 152.448 366.619 152.484C366.899 152.484 369.04 152.421 369.355 152.454C369.022 151.752 369.482 150.783 369.095 150.223L368.005 150.617C367.918 150.617 366.004 150.607 365.513 150.625C365.163 150.643 364.743 150.66 364.27 150.729C362.657 150.958 360.465 151.589 358.748 153.219C358.204 153.71 357.731 154.305 357.311 155.007C357.136 155.287 356.978 155.655 356.838 156.058C355.803 159.213 355.961 165.63 357.993 171.607C359.308 175.445 361.396 179.109 364.463 181.616C366.024 182.912 368.064 183.976 370.181 184.532C370.373 184.583 370.566 184.455 370.601 184.26L370.753 183.432C370.79 183.225 370.67 183.022 370.471 182.955C369.43 182.608 366.241 181.335 363.657 178.127Z" fill="#233862"/>
<path d="M441.553 171.624C441.553 171.624 439.281 172.85 438.843 174.285C438.405 175.722 438.295 192.373 437.583 193.854C436.872 195.332 436.196 203.822 437.292 207.912C437.292 207.912 436.448 211.547 436.714 212.259C436.98 212.971 439.147 213.848 439.927 213.793C440.706 213.737 441.104 209.21 440.246 207.912L441.553 171.624Z" fill="#FFB27D"/>
<path d="M463.146 165.186C461.739 163.958 461.402 161.906 461.331 160.716C461.611 162.829 463.511 164.693 463.511 164.693C461.248 162.009 464.899 152.186 459.182 149.702C455.439 148.076 452.681 149.143 451.222 150.073C447.958 149.629 444.041 154.335 444.041 154.335L451.855 164.693C451.855 164.693 452.413 163.404 453.193 163.463C452.768 165.103 452.519 166.444 453.339 167.286C457.406 171.467 455.746 173.493 458.07 174.211C460.913 175.086 466.58 168.181 463.146 165.186Z" fill="#2B478B"/>
<path d="M443.103 171.128C443.103 171.128 440.597 171.285 439.31 172.764C438.021 174.242 437.849 186.296 437.849 186.296C437.849 186.296 438.204 187.644 439.7 187.536C441.199 187.426 443.103 171.128 443.103 171.128Z" fill="#2B478B"/>
<path d="M468.711 201.179C468.539 201.599 467.788 201.971 466.706 202.239C464.282 202.842 460.191 202.923 457.209 201.817C454.011 200.635 451.691 183.732 450.706 175.07C450.363 172.048 450.179 170.028 450.179 170.028C450.179 170.028 452.017 167.152 459.127 168.112C466.235 169.07 466.954 171.467 467.593 175.78C468.232 180.093 469.271 199.821 468.711 201.179Z" fill="#EE9849"/>
<path d="M466.706 202.239C464.282 202.842 460.191 202.923 457.209 201.817C454.011 200.635 451.691 183.732 450.706 175.07C451.549 172.089 452.218 170.128 452.218 170.128C452.218 170.128 461.143 169.05 462.88 171.745C464.435 174.155 466.324 197.364 466.706 202.239Z" fill="#E58638"/>
<path d="M460.239 203.28C457.794 197.798 456.625 196.247 456.584 194.522C456.55 193.158 457.225 191.685 458.531 188.076C458.839 187.225 459.05 186.351 459.182 185.466C460.215 178.508 456.192 170.986 453.69 170.473C452.994 170.29 451.816 167.776 451.829 163.726L451.516 163.789L446.251 164.831C446.251 164.831 446.369 166.489 446.373 168.05C446.377 169.351 446.298 170.583 446.004 170.739C445.624 170.773 445.401 170.796 445.401 170.796C445.401 170.796 441.009 176.893 440.641 182.567C440.272 188.238 444.157 190.702 440.611 202.034C436.992 213.609 461.591 206.31 460.239 203.28Z" fill="#FFB27D"/>
<path d="M446.251 164.831C446.251 164.831 446.369 166.489 446.373 168.05C449.32 167.966 450.877 165.279 451.516 163.789L446.251 164.831Z" fill="#E8945B"/>
<path d="M452.06 163.215C452.06 163.215 453.603 160.775 453.974 158.689C454.24 157.199 453.481 151.678 447.932 152.472C447.932 152.472 446.322 152.632 444.806 153.655C443.601 154.469 441.863 156.225 443.806 161.043L444.311 162.671L452.06 163.215Z" fill="#2B478B"/>
<path d="M445.265 166.31C445.265 166.31 452.237 166.424 452.243 162.082C452.247 157.739 453.15 154.828 448.699 154.571C444.248 154.313 443.381 155.971 443.028 157.42C442.673 158.869 443.452 166.168 445.265 166.31Z" fill="#FFB27D"/>
<path d="M445.523 154.465C445.523 154.465 447.434 159.56 450.363 160.313C453.292 161.066 454.563 160.282 454.563 160.282C454.563 160.282 455.592 155.51 455.125 152.395C455.125 152.395 446.964 152.04 445.523 154.465Z" fill="#2B478B"/>
<path d="M445.996 154.879C445.996 154.879 444.571 156.016 444.224 157.122C443.875 158.228 443.72 160.505 443.055 160.428C443.055 160.428 441.618 156.964 443.235 155.005C444.948 152.927 445.996 154.879 445.996 154.879Z" fill="#2B478B"/>
<path d="M454.067 255.896C452.312 262.874 449.671 268.224 449.671 268.224L447.372 268.064C447.372 268.064 448.5 262.701 448.435 255.452C448.39 250.386 447.763 244.398 445.76 238.681C438.88 219.032 439.992 204.733 439.992 204.733L453.532 206.318C453.586 212.259 453.739 220.325 453.874 226.633C453.992 232.306 454.096 236.556 454.096 236.556C456.584 241.912 455.681 249.474 454.067 255.896Z" fill="#4A82D3"/>
<path d="M458.531 188.076C457.225 191.685 456.55 193.158 456.584 194.522C452.419 188.072 444.897 187.1 444.897 187.1L459.182 185.466C459.05 186.351 458.839 187.225 458.531 188.076Z" fill="#CB7D45"/>
<path d="M469.306 209.105L467.215 209.732C467.215 209.732 460.309 198.277 459.681 195.295C459.476 194.325 458.975 192.383 458.39 190.207C457.175 185.701 455.612 180.187 455.612 180.187L453.339 170.343C453.339 170.343 456.704 170.686 458.673 171.51C459.324 171.782 459.821 172.107 459.996 172.488C461.441 175.667 462.886 183.692 463.899 189.417C464.465 192.608 464.897 195.084 465.121 195.61C465.75 197.073 467.668 205.129 469.306 209.105Z" fill="#FFB27D"/>
<path d="M461.488 254.782C460.743 262.72 457.469 267.855 457.469 267.855L456.371 268.654C456.371 268.654 455.33 263.059 454.595 256.406C453.895 250.081 452.933 243.389 451.847 241.344C447.532 233.243 446.233 202.659 446.233 202.659L459.351 202.009C460.67 204.226 461.244 207.863 461.382 211.999C461.727 222.438 459.273 236.048 458.906 238.017L458.904 238.021C458.876 238.175 458.92 238.324 458.991 238.46C461.601 243.627 461.979 249.539 461.488 254.782Z" fill="#739AF0"/>
<path d="M445.732 155.05C445.732 155.05 447.092 160.386 450.788 162.095C450.788 162.095 447.092 158.817 446.779 155.295C446.464 151.772 445.732 155.05 445.732 155.05Z" fill="#2B478B"/>
<path d="M461.884 207.24C461.906 207.682 461.882 208.035 461.802 208.287C461.524 209.166 460.564 209.566 458.248 209.326C456.83 209.18 456.199 206.807 455.918 204.78C455.068 207.678 453.875 209.304 452.338 209.645C450.091 210.144 438.758 211.522 438.017 206.136C437.201 200.211 439.643 189.72 439.777 184.065C439.444 182.058 439.332 180.317 439.367 178.823C439.462 174.792 440.645 172.535 441.553 171.624C441.812 171.427 442.07 171.305 443.103 171.128C443.631 171.037 444.362 170.932 445.401 170.796L445.815 170.765C445.622 171.106 443.055 174.993 443.256 175.993C443.465 177.039 452.568 176.097 453.195 175.521C453.824 174.946 454.818 170.54 454.818 170.54C454.818 170.54 458.342 170.627 459.919 171.774C459.919 171.774 460.375 172.348 460.455 172.503C462.137 175.705 463.377 183.781 464.557 189.545C461.693 191.124 459.192 190.654 458.415 190.445C459.43 197.085 461.733 204.214 461.884 207.24Z" fill="#2B478B"/>
<path d="M445.401 170.796L445.387 170.82C445.078 171.309 440.242 179.038 439.777 184.065C439.444 182.058 439.332 180.317 439.367 178.823C439.988 176.923 441.498 172.705 443.103 171.128C443.304 170.928 445.401 170.796 445.401 170.796Z" fill="#E58638"/>
<path d="M461.488 254.782C460.743 262.72 457.469 267.855 457.469 267.855L456.351 268.872C456.351 268.872 455.33 263.059 454.595 256.406C455.37 256.462 458.788 256.586 461.488 254.782Z" fill="#FFB27D"/>
<path d="M454.067 255.896C452.312 262.874 449.671 268.224 449.671 268.224L447.372 268.064C447.372 268.064 448.5 262.701 448.435 255.452C449.215 255.847 450.824 256.245 454.067 255.896Z" fill="#FFB27D"/>
<path d="M450.995 270.152H449.527C449.036 270.075 448.673 269.933 448.169 269.866C447.402 269.765 447.049 270.081 446.98 270.152L446.966 270.168H440.731C440.574 269.943 440.723 269.424 440.871 269.042C440.972 268.782 441.189 268.587 441.455 268.508C442.117 268.317 443.42 268.147 444.615 267.065C445.287 266.46 447.857 264.833 447.857 264.833L447.871 264.831C447.928 264.831 448.196 264.914 449.365 265.902C449.97 266.412 451.001 265.182 451.001 265.182C451.001 265.182 451.195 265.342 451.338 265.642C451.455 265.876 451.539 266.199 451.472 266.598C451.38 267.159 451.679 268.204 451.92 268.91C452.066 269.338 452.188 269.641 452.188 269.641C452.188 269.641 452.257 269.994 450.995 270.152Z" fill="#E58638"/>
<path d="M451.338 265.642C450.99 265.888 450.248 266.375 449.76 266.438C449.097 266.525 447.857 264.833 447.857 264.833L447.871 264.831C447.928 264.831 448.196 264.914 449.365 265.902C449.97 266.412 451.001 265.182 451.001 265.182C451.001 265.182 451.195 265.342 451.338 265.642Z" fill="#963333"/>
<path d="M450.995 270.152H449.527C449.036 270.075 448.673 269.933 448.169 269.866C447.402 269.765 447.049 270.081 446.98 270.152L446.966 270.168H440.731C440.574 269.943 440.723 269.424 440.871 269.042C441.061 268.874 441.114 269.773 441.218 269.917C441.325 270.059 446.306 269.968 446.594 269.76C446.881 269.551 447.745 269.184 448.947 269.472C449.994 269.722 451.538 269.081 451.92 268.91C452.066 269.338 452.188 269.641 452.188 269.641C452.188 269.641 452.257 269.994 450.995 270.152Z" fill="#963333"/>
<path d="M458.827 270.152H457.361C456.868 270.075 456.505 269.933 456 269.866C455.236 269.765 454.883 270.081 454.812 270.152L454.8 270.168H448.563C448.407 269.943 448.557 269.424 448.705 269.042C448.803 268.782 449.02 268.587 449.288 268.508C449.951 268.317 451.254 268.147 452.446 267.065C453.118 266.46 455.691 264.833 455.691 264.833L455.705 264.831C455.76 264.831 456.03 264.914 457.199 265.902C457.804 266.412 458.835 265.182 458.835 265.182C458.835 265.182 459.028 265.342 459.172 265.642C459.288 265.876 459.373 266.199 459.306 266.598C459.213 267.159 459.513 268.204 459.754 268.91C459.898 269.338 460.022 269.641 460.022 269.641C460.022 269.641 460.091 269.994 458.827 270.152Z" fill="#E58638"/>
<path d="M459.172 265.642C458.821 265.888 458.082 266.375 457.591 266.438C456.929 266.525 455.691 264.833 455.691 264.833L455.705 264.831C455.76 264.831 456.03 264.914 457.199 265.902C457.804 266.412 458.835 265.182 458.835 265.182C458.835 265.182 459.028 265.342 459.172 265.642Z" fill="#963333"/>
<path d="M458.827 270.152H457.361C456.868 270.075 456.505 269.933 456 269.866C455.236 269.765 454.883 270.081 454.812 270.152L454.8 270.168H448.563C448.334 269.892 448.557 269.424 448.705 269.042C448.894 268.874 448.947 269.773 449.052 269.917C449.156 270.059 454.14 269.968 454.427 269.76C454.715 269.551 455.577 269.184 456.781 269.472C457.828 269.722 459.371 269.081 459.754 268.91C459.898 269.338 460.022 269.641 460.022 269.641C460.022 269.641 460.091 269.994 458.827 270.152Z" fill="#963333"/>
<path d="M461.884 207.24C460.327 206.72 458.33 205.336 455.931 202.237C449.58 194.029 455.391 184.386 456.17 184.205C456.951 184.025 458.415 190.445 458.415 190.445C459.43 197.085 461.733 204.214 461.884 207.24Z" fill="#233862"/>
<path d="M457.516 170.343C457.516 170.343 451.938 174.301 451.459 183.526C450.98 192.752 459.286 194.628 459.286 194.628L458.746 191.713C458.746 191.713 452.017 189.277 453.775 181.93C455.531 174.581 460.589 170.796 460.589 170.796L457.516 170.343Z" fill="#E58638"/>
<path d="M460.055 217.191L454.191 218.19C454.191 218.19 452.939 218.622 453.077 222.616C453.152 224.8 453.079 227.95 452.996 230.355C452.937 232.147 454.538 233.54 456.306 233.239L460.01 232.608C460.367 232.547 460.623 232.231 460.609 231.869L460.055 217.191Z" fill="#963333"/>
<path d="M470.278 213.718C472.269 213.253 474.465 214.029 475.937 214.745C472.779 215.348 469.385 215.929 466.527 216.349C467.307 215.307 468.539 214.122 470.278 213.718ZM490.42 224.965C490.25 224.209 489.949 223.225 489.446 221.948C489.344 221.689 489.261 221.411 489.192 221.118C488.845 219.691 488.809 217.922 488.484 216.552C488.484 216.552 488.121 212.042 482.261 213.422C480.909 213.739 479.296 214.082 477.564 214.427C476.194 213.611 473.006 212.009 470.041 212.699C467.481 213.294 465.91 215.245 465.121 216.546C463.653 216.746 462.389 216.887 461.459 216.949C457.313 217.221 456.927 220.546 457.451 222.503C457.536 222.817 457.607 223.3 457.67 223.891C457.993 226.986 456.746 230.958 458.433 232.872C458.827 233.316 481.973 228.841 488.506 227.743C489.815 227.524 490.712 226.261 490.42 224.965Z" fill="#B64C41"/>
<path d="M469.158 208.756C469.158 208.756 469.795 210.256 470.457 210.674C471.12 211.092 472.202 212.817 471.922 213.588C471.778 213.984 470.627 215.194 469.306 215.068C468.474 214.989 467.912 211.267 467.668 210.57C467.424 209.872 467.215 209.732 467.215 209.732L469.158 208.756Z" fill="#FFB27D"/>
<path d="M416.446 204.526C416.446 204.526 422.044 201.977 426.278 204.207C430.513 206.436 427.924 224.831 421.869 226.613C421.869 226.613 408.869 242.415 416.446 204.526Z" fill="#233862"/>
<path d="M404.203 230.396L404.185 230.371L404.222 230.394L404.203 230.396ZM406.537 206.657C406.261 204.504 406.797 200.603 406.797 200.603C406.797 200.603 404.895 200.505 403.83 203.012C401.624 208.204 402.582 219.415 402.716 221.019C402.716 221.019 401.957 224.207 403.085 229.718C402.917 230.11 402.695 230.617 402.561 230.822C402.539 230.844 402.521 230.867 402.505 230.893C402.367 231.1 402.356 231.376 402.496 231.599L403.225 232.754C403.294 232.862 403.39 232.943 403.501 232.994C403.536 233.012 403.574 233.024 403.613 233.034L404.516 233.249L404.605 230.171L404.595 230.17C404.906 227.144 406.789 208.632 406.537 206.657Z" fill="#A05F32"/>
<path d="M422.653 267.569L421.934 270.168H415.857C415.857 270.168 414.047 266.848 422.653 267.569Z" fill="#233862"/>
<path d="M409.622 267.569L408.902 270.168H402.825C402.825 270.168 401.015 266.848 409.622 267.569Z" fill="#233862"/>
<path d="M421.473 189.277C421.869 187.554 421.38 186.282 420.589 185.058C419.831 183.885 418.766 183.834 417.743 182.841C416.779 181.904 414.985 181.289 413.556 181.289C408.983 181.289 405.023 184.088 405.926 188.835C406.211 190.345 405.971 191.532 407.193 193.296C408.719 195.496 410.574 197.262 413.556 197.262C415.137 197.262 416.523 196.897 417.743 195.744C418.407 195.117 419.359 195.04 419.945 194.356C421.126 192.977 421.037 191.157 421.473 189.277Z" fill="#2B478B"/>
<path d="M410.382 194.898C410.382 194.898 411.386 198.776 409.357 200.426L415.058 203.339L415.809 199.568C415.809 199.568 414.733 196.623 415.027 192.521L410.382 194.898Z" fill="#A05F32"/>
<path d="M410.237 196.852C410.237 196.852 416.071 197.562 416.196 193.452C416.32 189.342 413.887 186.68 412.265 186.71C409.028 186.771 408.494 188.078 408.12 189.44C407.743 190.802 407.552 196.562 410.237 196.852Z" fill="#AF7041"/>
<path d="M404.67 227.914L416.2 228.867C416.2 228.867 417.554 249.087 409.978 267.832L403.519 267.709L404.67 227.914Z" fill="#963333"/>
<path d="M422.561 229.075C422.561 229.075 426.109 242.856 423.233 268.005L415.407 268.007L411.654 235.356C411.51 234.39 409.693 233.044 409.693 233.044L409.622 229.312L422.561 229.075Z" fill="#B64C41"/>
<path d="M422.823 208.64L423.578 202.446C423.463 202.287 423.371 202.151 423.257 202.013C421.932 200.39 416.836 199.683 415.809 199.568C415.801 199.58 415.764 199.657 415.618 199.811C414.682 200.656 413.408 201.555 411.719 201.327C410.278 201.145 410.043 200.39 410.089 199.568C407.073 200.071 405.358 201.019 405.358 201.019C402.285 202.172 401.668 212.379 401.668 212.379C402.076 212.259 404.116 212.616 405.062 212.791L404.68 227.924C412.015 231.124 422.572 229.066 422.572 229.066L422.549 228.975L421.841 216.866L422.503 211.335L422.823 208.64Z" fill="#F1A34F"/>
<path d="M411.796 194.483C411.796 194.483 411.67 194.995 410.392 194.9C410.392 194.9 409.32 194.822 409.359 194.256C409.359 194.256 410.404 193.868 411.796 194.483Z" fill="white"/>
<path d="M422.549 228.969L422.399 226.412C422.401 226.412 422.401 226.41 422.403 226.41L422.555 228.967C422.553 228.967 422.551 228.969 422.549 228.969Z" fill="#D6B49C"/>
<path d="M422.399 226.412L422.178 222.643L422.403 226.41C422.401 226.41 422.401 226.412 422.399 226.412ZM422.616 210.388L422.823 208.648H422.825L422.616 210.388Z" fill="#6B4B42"/>
<path d="M420.702 229.208C419.553 229.208 418.439 228.973 418.121 228.575C417.479 227.773 418.652 216.941 418.161 214.256C417.67 211.571 421.869 208.204 421.869 208.204L422.823 208.648L422.616 210.388L421.835 216.874L422.178 222.643L422.399 226.412L422.549 228.969C422.015 229.133 421.352 229.208 420.702 229.208Z" fill="#E78B37"/>
<path d="M427.142 209.257C427.142 209.257 423.897 210.467 422.503 211.335C422.229 211.496 422.046 211.632 421.932 211.77L417.499 202.949L416.653 201.281L415.876 199.706L415.809 199.568C415.809 199.568 415.87 199.572 415.991 199.592C416.424 199.637 417.499 199.773 418.733 200.047C419.509 200.231 420.355 200.436 421.11 200.733H421.131C422.046 201.076 422.823 201.51 423.257 202.013C423.371 202.151 423.463 202.287 423.578 202.446C425.062 204.571 427.142 209.257 427.142 209.257Z" fill="#F1A34F"/>
<path d="M422.517 225.878C422.517 225.878 406.578 208.754 416.653 201.281C417.248 200.826 417.934 200.414 418.733 200.047C419.509 200.231 420.355 200.436 421.11 200.733C420.286 200.962 418.732 201.555 417.499 202.949C415.054 205.669 414.075 211.597 422.391 223.639L422.517 225.878Z" fill="#233862"/>
<path d="M410.82 186.747C410.82 186.747 415.805 186.746 414.66 190.168C413.938 192.326 416.339 192.661 416.339 192.661L417.495 189.204L416.771 186.509L410.82 186.747Z" fill="#2B478B"/>
<path d="M426.996 209.288C425.456 209.763 423.128 210.8 422.421 211.496C423.203 213.298 423.645 214.488 423.645 214.488C423.055 214.228 420.01 213.98 418.431 213.868C418.252 213.854 416.807 213.381 416.807 213.381C416.807 213.381 416.795 210.915 413.976 210.719C413.976 210.719 412.801 210.727 413.042 211.53C413.282 212.33 413.308 211.983 413.623 213.122C413.937 214.262 414.757 215.127 415.628 215.178C419.815 218.699 425.581 218.729 427.319 218.648C427.629 218.634 427.895 218.417 427.964 218.115C428.622 215.253 428.171 212.287 426.996 209.288Z" fill="#A05F32"/>
<path d="M499.486 271.275H0.514134C0.248019 271.275 0.0303955 270.986 0.0303955 270.631C0.0303955 270.278 0.248019 269.988 0.514134 269.988H499.486C499.752 269.988 499.97 270.278 499.97 270.631C499.97 270.986 499.752 271.275 499.486 271.275Z" fill="#2E3552"/>
</svg>
