<svg width="403" height="315" viewBox="0 0 403 315" fill="none" xmlns="http://www.w3.org/2000/svg">
<path fill-rule="evenodd" clip-rule="evenodd" d="M148.955 39.1449C146.799 39.7032 142.453 39.0412 139.987 39.3896C173.71 39.6335 228.989 42.4516 262.153 39.354L253.602 39.2851C250.159 31.8405 244.946 6.99721 242.163 3.30975L241.053 1.84969C238.757 -0.65563 233.506 0.110081 229.684 0.110081C212.611 0.0752385 194.742 0.282632 177.776 0.110081C173.536 0.0387372 169.051 0.282632 164.844 0.110081C158.967 0.24862 158.934 6.96319 157.645 9.36481C156.744 11.0688 157.855 9.29347 156.812 12.0419C155.666 15.0698 155.211 18.5474 154.1 21.7852C153.857 22.5144 153.614 23.0719 153.475 23.9056C153.265 24.6024 148.955 39.1117 148.955 39.1449Z" fill="white"/>
<path fill-rule="evenodd" clip-rule="evenodd" d="M153.508 23.8714H155.907V28.9849H151.98L153.475 23.9056L153.508 23.8714ZM251.691 33.9963C251.167 32.4658 250.68 30.727 250.158 28.916H248.246V33.9963H251.691ZM150.796 32.9171L150.485 33.9963H150.796V32.9171ZM237.992 28.916H243.104V33.9963H237.992V28.916ZM227.736 28.916H232.846V33.9963H227.736V28.916ZM217.479 28.916H222.589V33.9963H217.479V28.916ZM207.221 28.916H212.335V33.9963H207.221V28.916ZM196.967 28.916H202.076V33.9963H196.967V28.916ZM186.71 28.916H191.823V33.9963H186.71V28.916ZM176.454 28.916H181.565V33.9963H176.454V28.916ZM166.199 28.916H171.309V33.9963H166.199V28.916ZM155.977 28.916H161.052V33.9963H155.977V28.916ZM243.104 23.8714H248.211V28.9849H243.104V23.8714ZM232.846 23.8714H237.955V28.9849H232.846V23.8714ZM222.589 23.8714H227.7V28.9849H222.589V23.8714ZM212.335 23.8714H217.444V28.9849H212.335V23.8714ZM202.076 23.8714H207.192V28.9849H202.076V23.8714ZM191.823 23.8714H196.931V28.9849H191.823V23.8714ZM181.565 23.8714H186.675V28.9849H181.565V23.8714ZM171.309 23.8714H176.421V28.9849H171.309V23.8714ZM161.087 23.8714H166.163V28.9849H161.087V23.8714Z" fill="white"/>
<path d="M186.294 19.663H183.721V9.64507H180.418V7.48486H189.596V9.64507H186.294V19.663ZM199.643 19.663L198.776 16.7404H194.323L193.456 19.663H190.674L194.951 7.41518H198.114L202.425 19.663H199.643ZM198.148 14.5819C197.316 11.9729 196.864 10.478 196.759 10.1287C196.654 9.78278 196.585 9.50404 196.549 9.329C196.374 10.0258 195.855 11.8003 194.985 14.5819H198.148ZM215.702 19.663H212.752L209.933 15.0356L207.12 19.663H204.336L208.37 13.364L204.616 7.48486H207.432L210.072 11.8675L212.65 7.48486H215.395L211.603 13.5026L215.702 19.663ZM219.148 19.663V7.48486H221.718V19.663H219.148Z" fill="white"/>
<path fill-rule="evenodd" clip-rule="evenodd" d="M28.0019 87.6114C20.0404 87.0514 7.83657 90.5332 4.08357 96.064C-11.8053 119.235 28.4888 115.965 39.8573 116.523C32.4866 122.751 4.50085 152.113 2.79441 159.108C0.917084 166.903 0.917084 229.04 0.742044 242.399C0.465796 261.709 -4.01806 307.251 12.8439 313.444C17.7102 315.22 44.6539 315.395 50.4966 314.105C64.4011 311.042 61.4114 298.342 62.0377 283.28C110.955 279.87 291.323 279.87 340.032 283.28C340.624 297.299 337.838 309.898 349.974 313.723C355.849 315.569 384.011 315.358 389.224 313.444C410.12 305.788 399.274 229.665 399.724 203.711C400.45 158.342 399.028 145.54 362.243 116.523C374.275 115.931 410.431 120.313 398.888 97.456C395.412 90.602 373.303 81.9753 365.13 91.4723C348.585 110.851 350.356 90.0454 335.267 68.2665C317.675 33.0577 313.261 33.6492 258.086 34.205C239.938 33.402 220.293 32.7084 202.112 32.6736C183.268 32.6039 110.606 34.8662 94.9262 38.5188C79.5948 38.8332 59.466 78.4944 52.3375 92.5507C41.1788 114.539 43.2296 88.723 28.0019 87.6114ZM52.2346 112.766C98.6468 113.565 151.422 107.092 199.955 107.06C250.228 106.99 300.466 112.383 349.834 112.766L323.169 61.065C318.264 53.0621 318.164 49.9669 307.595 48.2265C268.759 41.8587 136.68 42.7297 96.4916 47.9826C81.7849 49.9321 81.8894 55.7068 70.3815 76.1998C63.4289 88.5488 57.2759 100.066 52.2346 112.766ZM125.173 217.802C125.173 231.439 136.334 242.572 149.964 242.572H252.212C265.842 242.572 276.963 231.439 276.963 217.802V200.719C276.963 187.114 265.806 175.946 252.212 175.946H149.964C136.334 175.946 125.173 187.114 125.173 200.719V217.802ZM93.6752 217.871C99.342 215.194 105.113 208.652 107.236 203.223C91.9381 194.213 35.1993 190.211 17.7799 193.655C9.92378 239.826 77.6843 225.493 93.6752 217.871ZM294.936 203.222C297.026 208.651 302.793 215.193 308.459 217.871C324.457 225.493 392.213 239.825 384.358 193.654C366.975 190.21 310.203 194.212 294.936 203.222Z" fill="white"/>
</svg>
