<svg width="22" height="32" viewBox="0 0 22 32" fill="none" xmlns="http://www.w3.org/2000/svg">
<path d="M2.18947 11.5667C2.18947 6.46543 6.3249 2.32999 11.4262 2.32999C14.4081 2.32999 17.0593 3.74326 18.7481 5.9361C17.1531 3.16716 14.1637 1.30304 10.7387 1.30304C5.63739 1.30304 1.50196 5.43847 1.50196 10.5398C1.50196 12.6593 2.21635 14.6116 3.41684 16.1704C2.63614 14.8151 2.18947 13.2431 2.18947 11.5667Z" fill="#CD4A45"/>
<path d="M8.49253 27.9332C9.94135 30.3607 11.0001 32 11.0001 32C11.0001 32 21.6329 16.5052 21.6329 10.6329C21.6329 10.3245 21.6169 10.0201 21.5912 9.7184C21.1715 11.3498 20.5783 12.9382 19.8501 14.4542C17.8375 18.6436 14.8611 21.328 11.691 24.7268C10.6691 25.8224 9.60535 26.9059 8.49253 27.9332Z" fill="#AC262B"/>
<path fill-rule="evenodd" clip-rule="evenodd" d="M11.0001 32C11.0001 32 21.6329 16.5052 21.6329 10.6329C21.6329 4.76047 16.8724 0 11.0001 0C5.12771 0 0.367188 4.76047 0.367188 10.6329C0.367188 16.5052 11.0001 32 11.0001 32ZM11.0001 15.1623C13.7604 15.1623 15.9981 12.9246 15.9981 10.1642C15.9981 7.40391 13.7604 5.16618 11.0001 5.16618C8.23973 5.16618 6.002 7.40391 6.002 10.1642C6.002 12.9246 8.23973 15.1623 11.0001 15.1623Z" fill="#BD242B"/>
</svg>
