<svg width="118" height="134" viewBox="0 0 118 134" fill="none" xmlns="http://www.w3.org/2000/svg">
<path d="M87.2175 26.7067C87.2175 19.325 84.0621 12.6492 78.957 7.81794C73.8532 2.98668 66.7986 0 58.9999 0C43.4028 0 30.7825 11.9451 30.7825 26.7067V31.233C26.5249 31.233 23.0875 34.4859 23.0875 38.5153C23.0875 42.5464 26.5249 45.7992 30.7825 45.7992C30.7825 54.8301 35.528 62.8181 42.7873 67.6494L42.2495 69.9319C41.0687 75.0058 37.1955 79.0605 32.1167 80.6625C31.8346 80.7602 31.5525 80.8326 31.2693 80.9067L16.0328 84.7896C6.56662 87.1934 0 95.3988 0 104.746V109.81C14.7547 124.7 35.7302 134 58.9999 134C82.2696 134 103.245 124.7 118 109.81V104.746C118 95.3988 111.433 87.1934 101.967 84.7896L86.7307 80.9067C86.4473 80.8326 86.1652 80.7602 85.8831 80.6625C80.8043 79.0605 76.9313 75.0058 75.7504 69.9319L75.2125 67.6494C82.4718 62.8181 87.2175 54.8301 87.2175 45.7992C91.4749 45.7992 94.9125 42.5464 94.9125 38.5153C94.9125 34.4859 91.4749 31.233 87.2175 31.233V26.7067Z" fill="white" fill-opacity="0.3"/>
</svg>
